<svg width="12" height="12" viewBox="0 0 12 12" fill="none" xmlns="http://www.w3.org/2000/svg">
<path d="M5.52192 0.818281C5.64166 0.449757 6.16303 0.449757 6.28277 0.818281L7.38414 4.20795C7.43769 4.37276 7.59127 4.48434 7.76456 4.48434H11.3287C11.7162 4.48434 11.8773 4.98019 11.5638 5.20795L8.68036 7.30288C8.54016 7.40474 8.4815 7.58528 8.53505 7.75009L9.63642 11.1398C9.75616 11.5083 9.33437 11.8147 9.02088 11.587L6.13746 9.49204C5.99726 9.39019 5.80742 9.39019 5.66723 9.49204L2.78381 11.587C2.47032 11.8147 2.04853 11.5083 2.16827 11.1398L3.26964 7.75009C3.32319 7.58528 3.26453 7.40474 3.12433 7.30288L0.240907 5.20795C-0.0725785 4.98019 0.0885319 4.48434 0.476021 4.48434H4.04013C4.21342 4.48434 4.367 4.37276 4.42055 4.20795L5.52192 0.818281Z" fill="#B99E63"/>
</svg>
